<svg xmlns="http://www.w3.org/2000/svg" height="100%" version="1.1" viewBox="0 0 36 36" width="100%"><g class="ytp-fullscreen-button-corner-0"><use class="ytp-svg-shadow" xmlns:ns1="http://www.w3.org/1999/xlink" ns1:href="#ytp-id-7"/><path class="ytp-svg-fill" d="m 10,16 2,0 0,-4 4,0 0,-2 L 10,10 l 0,6 0,0 z" id="ytp-id-7"/></g><g class="ytp-fullscreen-button-corner-1"><use class="ytp-svg-shadow" xmlns:ns2="http://www.w3.org/1999/xlink" ns2:href="#ytp-id-8"/><path class="ytp-svg-fill" d="m 20,10 0,2 4,0 0,4 2,0 L 26,10 l -6,0 0,0 z" id="ytp-id-8"/></g><g class="ytp-fullscreen-button-corner-2"><use class="ytp-svg-shadow" xmlns:ns3="http://www.w3.org/1999/xlink" ns3:href="#ytp-id-9"/><path class="ytp-svg-fill" d="m 24,24 -4,0 0,2 L 26,26 l 0,-6 -2,0 0,4 0,0 z" id="ytp-id-9"/></g><g class="ytp-fullscreen-button-corner-3"><use class="ytp-svg-shadow" xmlns:ns4="http://www.w3.org/1999/xlink" ns4:href="#ytp-id-10"/><path class="ytp-svg-fill" d="M 12,20 10,20 10,26 l 6,0 0,-2 -4,0 0,-4 0,0 z" id="ytp-id-10"/></g></svg>