<svg xmlns="http://www.w3.org/2000/svg" enable-background="new 0 0 24 24" height="24" viewBox="0 0 24 24" width="24" focusable="false" style="pointer-events: none; display: block; width: 100%; height: 100%;"><path d="M10 9.35 15 12l-5 2.65ZM12 3a.73.73 0 00-.31.06L4.3 7.28a.79.79 0 00-.3.52v8.4a.79.79 0 00.3.52l7.39 4.22a.83.83 0 00.62 0l7.39-4.22a.79.79 0 00.3-.52V7.8a.79.79 0 00-.3-.52l-7.39-4.22A.73.73 0 0012 3m0-1a1.6 1.6 0 01.8.19l7.4 4.22A1.77 1.77 0 0121 7.8v8.4a1.77 1.77 0 01-.8 1.39l-7.4 4.22a1.78 1.78 0 01-1.6 0l-7.4-4.22A1.77 1.77 0 013 16.2V7.8a1.77 1.77 0 01.8-1.39l7.4-4.22A1.6 1.6 0 0112 2Zm0 4a.42.42 0 00-.17 0l-4.7 2.8a.59.59 0 00-.13.39v5.61a.65.65 0 00.13.37l4.7 2.8A.42.42 0 0012 18a.34.34 0 00.17 0l4.7-2.81a.56.56 0 00.13-.39V9.19a.62.62 0 00-.13-.37L12.17 6A.34.34 0 0012 6m0-1a1.44 1.44 0 01.69.17L17.39 8A1.46 1.46 0 0118 9.19v5.61a1.46 1.46 0 01-.61 1.2l-4.7 2.81A1.44 1.44 0 0112 19a1.4 1.4 0 01-.68-.17L6.62 16A1.47 1.47 0 016 14.8V9.19A1.47 1.47 0 016.62 8l4.7-2.8A1.4 1.4 0 0112 5Z"/></svg>